<svg xmlns="http://www.w3.org/2000/svg" width="352.164" height="92.396" viewBox="0 0 352.164 92.396">
  <g id="Logótipo" transform="translate(0.004 0)">
    <g id="Camada_1_Imagem" data-name="Camada 1 Imagem" transform="translate(-0.004 0)">
      <path id="Caminho_103" data-name="Caminho 103" d="M802.533,126.2c-.508-.062-1.008-.139-1.516-.181a26.056,26.056,0,0,1-8.139-1.851,12.112,12.112,0,0,1-7.635-9.2,16.239,16.239,0,0,1-.327-3.017q-.031-21.377,0-42.758a12.769,12.769,0,0,1,3.271-9.009,14.608,14.608,0,0,1,6.623-3.925,30.3,30.3,0,0,1,7.623-1.228,40.375,40.375,0,0,1,11.814.954,16.3,16.3,0,0,1,6.542,3.136,11.16,11.16,0,0,1,3.971,7.115,21.945,21.945,0,0,1,.246,3.256q.031,12.78,0,25.556v.593H801.982v16.132a6.745,6.745,0,0,0,.281,1.9,2.34,2.34,0,0,0,2.167,1.728,4.9,4.9,0,0,0,1.462-.065,2.659,2.659,0,0,0,1.978-2.636c.023-.273.023-.554.023-.827V97.884h17.121v14.2a13.27,13.27,0,0,1-1.951,7.377,12.981,12.981,0,0,1-6.827,5.076,28.674,28.674,0,0,1-7.439,1.478c-.523.046-1.047.119-1.57.181Zm5.388-41.03V69.091q0-.3-.023-.6a2.648,2.648,0,0,0-2.559-2.694,2.711,2.711,0,0,0-3.079,1.732,5.933,5.933,0,0,0-.269,1.763c-.019,5.149,0,10.3,0,15.447a2.32,2.32,0,0,0,.027.419Z" transform="translate(-482.849 -33.814)" fill="#c73521"/>
      <path id="Caminho_104" data-name="Caminho 104" d="M456.506,126.224c-.523-.062-1.043-.135-1.57-.181a26.726,26.726,0,0,1-7.8-1.716c-5.253-2.132-7.939-6.076-8.266-11.683-.023-.339-.023-.677-.023-1.016V69.3a13.249,13.249,0,0,1,2.471-8.112,13.6,13.6,0,0,1,6.842-4.7A28.989,28.989,0,0,1,456.4,55.07,38.652,38.652,0,0,1,469.143,56.3a16.548,16.548,0,0,1,4.472,2.032,11.388,11.388,0,0,1,5.134,8.22,19.469,19.469,0,0,1,.189,2.8q.023,12.872,0,25.737v.589H455.928v16.1a7.312,7.312,0,0,0,.112,1.328,2.716,2.716,0,0,0,3.186,2.363,2.561,2.561,0,0,0,2.517-2.309,6.543,6.543,0,0,0,.1-1.193V97.916h17.1V112.2a12.794,12.794,0,0,1-2.424,7.974,13.437,13.437,0,0,1-6.315,4.375,28.315,28.315,0,0,1-7.477,1.493c-.508.038-1.012.115-1.539.177Zm5.349-41.034v-16.1a5.94,5.94,0,0,0-.069-.824,2.557,2.557,0,0,0-2.594-2.44,2.651,2.651,0,0,0-3,1.759,6.228,6.228,0,0,0-.25,1.813c-.019,5.1,0,10.2,0,15.3a3.494,3.494,0,0,0,.023.489Z" transform="translate(-269.968 -33.839)" fill="#c73521"/>
      <path id="Caminho_105" data-name="Caminho 105" d="M279.814,126.175l-2.02-.277a13.615,13.615,0,0,1-6.569-2.455,8.946,8.946,0,0,1-3.421-6.257,17.582,17.582,0,0,1-.119-2.251c0-4.441.077-8.889-.031-13.33a11.587,11.587,0,0,1,4.537-9.621,52.7,52.7,0,0,1,8.893-5.745c2.132-1.154,4.306-2.244,6.407-3.463a17.727,17.727,0,0,0,2.544-1.963,2.09,2.09,0,0,0,.67-1.7c-.023-3.363,0-6.731-.027-10.1a5.524,5.524,0,0,0-.1-1.008,2.483,2.483,0,0,0-2.14-2.174,2.527,2.527,0,0,0-2.909,1.428,10.236,10.236,0,0,0-1,4,49.106,49.106,0,0,0,.135,8.239c.085,1.154.123,2.309.185,3.463H268.3c0-.154-.019-.3-.019-.45,0-4.579-.027-9.163,0-13.746a12.514,12.514,0,0,1,2.532-7.927,13.536,13.536,0,0,1,6.507-4.333,31.417,31.417,0,0,1,8.828-1.509,38.056,38.056,0,0,1,10.587.77,17.087,17.087,0,0,1,5.549,2.309,12,12,0,0,1,5.388,9.082,26.546,26.546,0,0,1,.169,3.129v54.88H292.655v-2.351h-.119a7.388,7.388,0,0,1-4.964,2.805c-1.154.235-2.309.319-3.463.477a2.378,2.378,0,0,0-.323.092Zm10.852-31.967a11.614,11.614,0,0,0-3.579,1.424,4.591,4.591,0,0,0-2.309,4.195c.031,4.025,0,8.054,0,12.084a7.029,7.029,0,0,0,.085,1.1,2.428,2.428,0,0,0,1.389,1.99,3.764,3.764,0,0,0,2.694.139,2.078,2.078,0,0,0,1.428-1.393,4.518,4.518,0,0,0,.262-1.347q.027-8.947,0-17.894C290.693,94.427,290.681,94.354,290.666,94.207Z" transform="translate(-164.649 -33.79)" fill="#c73521"/>
      <path id="Caminho_106" data-name="Caminho 106" d="M687.418,126.2c-.52-.062-1.039-.139-1.562-.181a27.376,27.376,0,0,1-7.55-1.585,12.752,12.752,0,0,1-6.157-4.56,12.061,12.061,0,0,1-2.059-5.749c-.092-.9-.115-1.809-.119-2.717V97.164h17.1v14.827a6.107,6.107,0,0,0,.292,1.8,2.39,2.39,0,0,0,2.367,1.655,2.036,2.036,0,0,0,2.151-1.347,11.214,11.214,0,0,0,.77-2.871,26.423,26.423,0,0,0-.531-9.016,8.4,8.4,0,0,0-2.574-4.687,6.973,6.973,0,0,0-1.255-.77c-3.875-2.07-7.789-4.075-11.475-6.477a37.706,37.706,0,0,1-3.117-2.309,8.578,8.578,0,0,1-3.329-6.873c-.035-4.233-.158-8.493.027-12.73.242-5.7,3.179-9.852,9.259-11.93a29.947,29.947,0,0,1,8.562-1.432,37.135,37.135,0,0,1,11.118.97,15.743,15.743,0,0,1,6.092,2.948,11.291,11.291,0,0,1,4.06,7.369,22.308,22.308,0,0,1,.208,3.167c.023,4.26,0,8.516,0,12.776v.57h-16.6c0-1.012-.027-2.009,0-3a57.4,57.4,0,0,0,.046-9.02,10.39,10.39,0,0,0-.931-3.544,2.264,2.264,0,0,0-2.694-1.385,2.663,2.663,0,0,0-1.886,1.62,7.734,7.734,0,0,0-.62,3.079c-.046,1.489-.023,2.979-.062,4.472a7.9,7.9,0,0,0,3.19,6.492,47.473,47.473,0,0,0,7.927,5.03c1.609.87,3.229,1.724,4.88,2.505a12.954,12.954,0,0,1,7.112,11.545v11.16c0,6.307-3.279,10.829-9.267,12.838a32.225,32.225,0,0,1-8.231,1.47,2.382,2.382,0,0,0-.423.092Z" transform="translate(-412.147 -33.81)" fill="#c73521"/>
      <path id="Caminho_107" data-name="Caminho 107" d="M901,48.559a4.478,4.478,0,0,1-4.487,3.767,4.545,4.545,0,0,1-4.233-4.414,4.617,4.617,0,0,1,3.56-4.868,4.387,4.387,0,0,1,5.084,3.329,7.284,7.284,0,0,1,.14,1.108A6.507,6.507,0,0,1,901,48.559Zm-.727-.939a3.689,3.689,0,0,0-4.125-3.825,3.77,3.77,0,0,0-3.056,3.317,3.639,3.639,0,1,0,7.181.508Z" transform="translate(-548.902 -26.428)"/>
      <path id="Caminho_108" data-name="Caminho 108" d="M43.221,55.789V83.5a13.659,13.659,0,0,1-7.335,12.576,23.447,23.447,0,0,1-8.293,2.755,43.036,43.036,0,0,1-13.315-.1,20.949,20.949,0,0,1-8.389-2.99A12.4,12.4,0,0,1,.209,86.7,22.162,22.162,0,0,1,0,83.67Q0,55.786,0,27.9a17.086,17.086,0,0,1,1.443-7.112,13.742,13.742,0,0,1,7.373-7,26.191,26.191,0,0,1,7.7-1.924,46.563,46.563,0,0,1,9.574-.089,24.319,24.319,0,0,1,10.109,2.852A13.344,13.344,0,0,1,42.932,24.63a26.01,26.01,0,0,1,.281,3.944Q43.242,42.18,43.221,55.789Zm-18.545-.454V25.677a2.109,2.109,0,0,0-1.539-2.024,5.076,5.076,0,0,0-3.079,0,2.1,2.1,0,0,0-1.539,1.763,5.622,5.622,0,0,0-.05.92V84.359c0,.2,0,.385.019.6a2.062,2.062,0,0,0,1.636,2.074,7.435,7.435,0,0,0,2,.185,2.357,2.357,0,0,0,2.559-2.694Z" transform="translate(0.004 -7.117)"/>
      <path id="Caminho_109" data-name="Caminho 109" d="M167.85,55.836h21v42.6H179.76l-2.432-4.668-.831.673a20.946,20.946,0,0,1-8.716,4.414,20.48,20.48,0,0,1-7.562.112,17.556,17.556,0,0,1-7.015-2.524,12.644,12.644,0,0,1-5.869-9.367A22.741,22.741,0,0,1,147.158,84V27.721a15.843,15.843,0,0,1,2.386-8.77,14.647,14.647,0,0,1,7.666-5.772,30.4,30.4,0,0,1,8.947-1.6,37.2,37.2,0,0,1,12.157,1.154,15.728,15.728,0,0,1,6.346,3.344,12.46,12.46,0,0,1,4.014,7.927,23.479,23.479,0,0,1,.192,3.032V42.775h-17.14V25.685c0-1.5-.558-2.178-2.067-2.336a6.927,6.927,0,0,0-2.051.108,1.793,1.793,0,0,0-1.512,1.878V84.794a2.1,2.1,0,0,0,2.278,2.4,7.142,7.142,0,0,0,1.647-.089,1.871,1.871,0,0,0,1.7-2.1V69.043H167.85Z" transform="translate(-90.525 -7.086)" fill="#c73521"/>
      <path id="Caminho_110" data-name="Caminho 110" d="M571.649,125.152H554.54v-69.7h17.086v2.282c.385-.254.673-.466.981-.658A13.935,13.935,0,0,1,578,55.248a22.2,22.2,0,0,1,6.738-.108,12.491,12.491,0,0,1,7.877,4.01,8.27,8.27,0,0,1,2.036,5.13c.035.7.046,1.412.046,2.117v58.747H577.526V68.752a3,3,0,0,0-4.7-2.309,2.748,2.748,0,0,0-1.154,2.386v56.308Z" transform="translate(-341.137 -33.794)" fill="#c73521"/>
      <path id="Caminho_111" data-name="Caminho 111" d="M400.539,125.992H383.46V56.3h17.079Z" transform="translate(-235.893 -34.635)" fill="#c73521"/>
      <path id="Caminho_112" data-name="Caminho 112" d="M400.546,13.71V26.221H383.46V13.71Z" transform="translate(-235.893 -8.434)" fill="#c73521"/>
      <path id="Caminho_113" data-name="Caminho 113" d="M735.036,18.14h-4.318l-4.152-5.68-4.233-5.772V18.125H718V.658h4.341L730.7,12.1V.65h4.322Z" transform="translate(-441.694 -0.4)"/>
      <path id="Caminho_114" data-name="Caminho 114" d="M658.62.613a1.982,1.982,0,0,1,.239-.023c2.786,0,5.572,0,8.355.038a9.882,9.882,0,0,1,4.118.889,4.578,4.578,0,0,1,2.863,4.3,4.68,4.68,0,0,1-2.694,4.522c-.323.169-.662.312-1.043.493.77,1.216,1.539,2.413,2.309,3.614l2.309,3.664h-4.764L666.4,11.738h-3.421V18.1H658.62ZM663,3.5V8.679c1.539,0,3.079.108,4.572-.031a2.336,2.336,0,0,0,2.267-2.494,2.332,2.332,0,0,0-2.267-2.494C666.074,3.5,664.539,3.545,663,3.5Z" transform="translate(-405.165 -0.363)"/>
      <path id="Caminho_115" data-name="Caminho 115" d="M611.525,9.044a9.963,9.963,0,0,1-.947,4.56,7.554,7.554,0,0,1-4.549,3.848,10.821,10.821,0,0,1-6.75.05,7.907,7.907,0,0,1-5.688-7.743,13.139,13.139,0,0,1,.339-3.848A7.974,7.974,0,0,1,600.785.123,10.794,10.794,0,0,1,607,.943a7.752,7.752,0,0,1,4.429,6.5C611.491,7.97,611.495,8.509,611.525,9.044ZM597.883,8.79a28.152,28.152,0,0,0,.469,3.1,4.054,4.054,0,0,0,4.191,3.129,4.012,4.012,0,0,0,4.2-3.079,11.044,11.044,0,0,0,.073-5.518,3.928,3.928,0,0,0-3.848-3.394,4.053,4.053,0,0,0-4.641,3.079,26.641,26.641,0,0,0-.446,2.682Z" transform="translate(-365.147 0)"/>
      <path id="Caminho_116" data-name="Caminho 116" d="M786.418.61h4.025l7.866,17.5h-4.618l-1.451-3.567h-7.577l-1.435,3.567H778.61C781.211,12.255,783.813,6.44,786.418.61Zm2.013,4.479c-.889,2.228-1.728,4.333-2.575,6.469h5.184Z" transform="translate(-478.979 -0.375)"/>
      <path id="Caminho_117" data-name="Caminho 117" d="M538.663,12.991H543c0,.15.023.285.035.416a1.963,1.963,0,0,0,1.778,1.974,5,5,0,0,0,1.416.054,2.351,2.351,0,0,0,2.151-2.309c.042-.673.019-1.351.019-2.028q.012-4.968.012-9.928V.65h4.341v.52c0,3.779-.05,7.562,0,11.341a5.253,5.253,0,0,1-3.483,5.207,10.005,10.005,0,0,1-7.785-.154,4.618,4.618,0,0,1-2.817-4.572Z" transform="translate(-331.363 -0.4)"/>
      <path id="Caminho_118" data-name="Caminho 118" d="M849.578,15.251h9.182v2.894h-13.5V.67h4.318Z" transform="translate(-519.981 -0.412)"/>
      <path id="Caminho_119" data-name="Caminho 119" d="M898.45,48.621c.92,0,1.813-.027,2.694,0a1.163,1.163,0,0,1,1.239.831,1.339,1.339,0,0,1-.62,1.585h0L902.879,53h-1.7c-.469-.5-.527-1.3-1.254-1.778V53h-1.474Zm1.485,1.712a4.807,4.807,0,0,0,.77-.085.285.285,0,0,0-.042-.554,4.539,4.539,0,0,0-.727,0Z" transform="translate(-552.702 -29.903)"/>
    </g>
  </g>
</svg>
